<mxfile host="Electron" agent="Mozilla/5.0 (Windows NT 10.0; Win64; x64) AppleWebKit/537.36 (KHTML, like Gecko) draw.io/28.1.2 Chrome/138.0.7204.243 Electron/37.4.0 Safari/537.36" version="28.1.2">
  <diagram name="Page-1" id="WoKueNH_oWyhVDgtjcG3">
    <mxGraphModel dx="786" dy="564" grid="1" gridSize="10" guides="1" tooltips="1" connect="1" arrows="1" fold="1" page="1" pageScale="1" pageWidth="850" pageHeight="1100" math="0" shadow="0">
      <root>
        <mxCell id="0" />
        <mxCell id="1" parent="0" />
        <mxCell id="rvspoTg9fa7cA13PtzIw-1" value="&lt;code&gt;&lt;b&gt;&lt;font style=&quot;font-size: 13px;&quot;&gt;Fact_Car&lt;/font&gt;&lt;/b&gt;&lt;/code&gt;" style="swimlane;fontStyle=0;childLayout=stackLayout;horizontal=1;startSize=30;horizontalStack=0;resizeParent=1;resizeParentMax=0;resizeLast=0;collapsible=1;marginBottom=0;whiteSpace=wrap;html=1;" parent="1" vertex="1">
          <mxGeometry x="310" y="140" width="140" height="360" as="geometry" />
        </mxCell>
        <mxCell id="rvspoTg9fa7cA13PtzIw-2" value="&lt;code&gt;&lt;font style=&quot;font-size: 13px;&quot;&gt;&lt;b&gt;Car_SK&lt;/b&gt;&lt;/font&gt;&lt;/code&gt;&amp;nbsp;&lt;span style=&quot;white-space: pre;&quot;&gt;&#x9;&lt;/span&gt;&lt;span style=&quot;white-space: pre;&quot;&gt;&#x9;&lt;/span&gt;&lt;span style=&quot;white-space: pre;&quot;&gt;&#x9;&lt;/span&gt;PK" style="text;strokeColor=none;fillColor=none;align=left;verticalAlign=middle;spacingLeft=4;spacingRight=4;overflow=hidden;points=[[0,0.5],[1,0.5]];portConstraint=eastwest;rotatable=0;whiteSpace=wrap;html=1;" parent="rvspoTg9fa7cA13PtzIw-1" vertex="1">
          <mxGeometry y="30" width="140" height="30" as="geometry" />
        </mxCell>
        <mxCell id="rvspoTg9fa7cA13PtzIw-3" value="Model_SK&lt;span style=&quot;white-space: pre;&quot;&gt;&#x9;&lt;/span&gt;&lt;span style=&quot;white-space: pre;&quot;&gt;&#x9;&lt;/span&gt;FK" style="text;strokeColor=none;fillColor=none;align=left;verticalAlign=middle;spacingLeft=4;spacingRight=4;overflow=hidden;points=[[0,0.5],[1,0.5]];portConstraint=eastwest;rotatable=0;whiteSpace=wrap;html=1;" parent="rvspoTg9fa7cA13PtzIw-1" vertex="1">
          <mxGeometry y="60" width="140" height="30" as="geometry" />
        </mxCell>
        <mxCell id="rvspoTg9fa7cA13PtzIw-4" value="Company_SK&lt;span style=&quot;white-space: pre;&quot;&gt;&#x9;&lt;/span&gt;&lt;span style=&quot;white-space: pre;&quot;&gt;&#x9;&lt;/span&gt;FK" style="text;strokeColor=none;fillColor=none;align=left;verticalAlign=middle;spacingLeft=4;spacingRight=4;overflow=hidden;points=[[0,0.5],[1,0.5]];portConstraint=eastwest;rotatable=0;whiteSpace=wrap;html=1;" parent="rvspoTg9fa7cA13PtzIw-1" vertex="1">
          <mxGeometry y="90" width="140" height="30" as="geometry" />
        </mxCell>
        <mxCell id="bVk_ooVgfEcZp028kmDX-6" value="Engine_SK&lt;span style=&quot;white-space: pre;&quot;&gt;&#x9;&lt;/span&gt;&lt;span style=&quot;white-space: pre;&quot;&gt;&#x9;&lt;/span&gt;FK" style="text;strokeColor=none;fillColor=none;align=left;verticalAlign=middle;spacingLeft=4;spacingRight=4;overflow=hidden;points=[[0,0.5],[1,0.5]];portConstraint=eastwest;rotatable=0;whiteSpace=wrap;html=1;" vertex="1" parent="rvspoTg9fa7cA13PtzIw-1">
          <mxGeometry y="120" width="140" height="30" as="geometry" />
        </mxCell>
        <mxCell id="rvspoTg9fa7cA13PtzIw-16" value="FuelType_SK&lt;span style=&quot;white-space: pre;&quot;&gt;&#x9;&lt;/span&gt;&lt;span style=&quot;white-space: pre;&quot;&gt;&#x9;&lt;/span&gt;FK" style="text;strokeColor=none;fillColor=none;align=left;verticalAlign=middle;spacingLeft=4;spacingRight=4;overflow=hidden;points=[[0,0.5],[1,0.5]];portConstraint=eastwest;rotatable=0;whiteSpace=wrap;html=1;" parent="rvspoTg9fa7cA13PtzIw-1" vertex="1">
          <mxGeometry y="150" width="140" height="30" as="geometry" />
        </mxCell>
        <mxCell id="rvspoTg9fa7cA13PtzIw-13" value="Price_USD" style="text;strokeColor=none;fillColor=none;align=left;verticalAlign=middle;spacingLeft=4;spacingRight=4;overflow=hidden;points=[[0,0.5],[1,0.5]];portConstraint=eastwest;rotatable=0;whiteSpace=wrap;html=1;" parent="rvspoTg9fa7cA13PtzIw-1" vertex="1">
          <mxGeometry y="180" width="140" height="30" as="geometry" />
        </mxCell>
        <mxCell id="rvspoTg9fa7cA13PtzIw-14" value="Horsepower" style="text;strokeColor=none;fillColor=none;align=left;verticalAlign=middle;spacingLeft=4;spacingRight=4;overflow=hidden;points=[[0,0.5],[1,0.5]];portConstraint=eastwest;rotatable=0;whiteSpace=wrap;html=1;" parent="rvspoTg9fa7cA13PtzIw-1" vertex="1">
          <mxGeometry y="210" width="140" height="30" as="geometry" />
        </mxCell>
        <mxCell id="rvspoTg9fa7cA13PtzIw-15" value="Torque_NM" style="text;strokeColor=none;fillColor=none;align=left;verticalAlign=middle;spacingLeft=4;spacingRight=4;overflow=hidden;points=[[0,0.5],[1,0.5]];portConstraint=eastwest;rotatable=0;whiteSpace=wrap;html=1;" parent="rvspoTg9fa7cA13PtzIw-1" vertex="1">
          <mxGeometry y="240" width="140" height="30" as="geometry" />
        </mxCell>
        <mxCell id="bVk_ooVgfEcZp028kmDX-9" value="Top_Speed_KPH" style="text;strokeColor=none;fillColor=none;align=left;verticalAlign=middle;spacingLeft=4;spacingRight=4;overflow=hidden;points=[[0,0.5],[1,0.5]];portConstraint=eastwest;rotatable=0;whiteSpace=wrap;html=1;" vertex="1" parent="rvspoTg9fa7cA13PtzIw-1">
          <mxGeometry y="270" width="140" height="30" as="geometry" />
        </mxCell>
        <mxCell id="bVk_ooVgfEcZp028kmDX-10" value="Acceleration_Sec" style="text;strokeColor=none;fillColor=none;align=left;verticalAlign=middle;spacingLeft=4;spacingRight=4;overflow=hidden;points=[[0,0.5],[1,0.5]];portConstraint=eastwest;rotatable=0;whiteSpace=wrap;html=1;" vertex="1" parent="rvspoTg9fa7cA13PtzIw-1">
          <mxGeometry y="300" width="140" height="30" as="geometry" />
        </mxCell>
        <mxCell id="rvspoTg9fa7cA13PtzIw-17" value="&lt;table&gt;&lt;tbody&gt;&lt;tr&gt;&lt;td&gt;&lt;code&gt;Seats&lt;/code&gt;&lt;/td&gt;&lt;td&gt;&lt;/td&gt;&lt;/tr&gt;&lt;/tbody&gt;&lt;/table&gt;" style="text;strokeColor=none;fillColor=none;align=left;verticalAlign=middle;spacingLeft=4;spacingRight=4;overflow=hidden;points=[[0,0.5],[1,0.5]];portConstraint=eastwest;rotatable=0;whiteSpace=wrap;html=1;" parent="rvspoTg9fa7cA13PtzIw-1" vertex="1">
          <mxGeometry y="330" width="140" height="30" as="geometry" />
        </mxCell>
        <mxCell id="rvspoTg9fa7cA13PtzIw-5" value="&lt;code&gt;&lt;font style=&quot;font-size: 13px;&quot;&gt;&lt;b&gt;Dim_Engine&lt;/b&gt;&lt;/font&gt;&lt;/code&gt;" style="swimlane;fontStyle=0;childLayout=stackLayout;horizontal=1;startSize=30;horizontalStack=0;resizeParent=1;resizeParentMax=0;resizeLast=0;collapsible=1;marginBottom=0;whiteSpace=wrap;html=1;" parent="1" vertex="1">
          <mxGeometry x="540" y="170" width="140" height="120" as="geometry" />
        </mxCell>
        <mxCell id="rvspoTg9fa7cA13PtzIw-6" value="&lt;code&gt;&lt;b&gt;Engine_SK&lt;span style=&quot;white-space: pre;&quot;&gt;&#x9;&lt;/span&gt;PK&lt;/b&gt;&lt;/code&gt;" style="text;strokeColor=none;fillColor=none;align=left;verticalAlign=middle;spacingLeft=4;spacingRight=4;overflow=hidden;points=[[0,0.5],[1,0.5]];portConstraint=eastwest;rotatable=0;whiteSpace=wrap;html=1;" parent="rvspoTg9fa7cA13PtzIw-5" vertex="1">
          <mxGeometry y="30" width="140" height="30" as="geometry" />
        </mxCell>
        <mxCell id="rvspoTg9fa7cA13PtzIw-7" value="Engine_Name" style="text;strokeColor=none;fillColor=none;align=left;verticalAlign=middle;spacingLeft=4;spacingRight=4;overflow=hidden;points=[[0,0.5],[1,0.5]];portConstraint=eastwest;rotatable=0;whiteSpace=wrap;html=1;" parent="rvspoTg9fa7cA13PtzIw-5" vertex="1">
          <mxGeometry y="60" width="140" height="30" as="geometry" />
        </mxCell>
        <mxCell id="rvspoTg9fa7cA13PtzIw-8" value="Engine_Capacity" style="text;strokeColor=none;fillColor=none;align=left;verticalAlign=middle;spacingLeft=4;spacingRight=4;overflow=hidden;points=[[0,0.5],[1,0.5]];portConstraint=eastwest;rotatable=0;whiteSpace=wrap;html=1;" parent="rvspoTg9fa7cA13PtzIw-5" vertex="1">
          <mxGeometry y="90" width="140" height="30" as="geometry" />
        </mxCell>
        <mxCell id="rvspoTg9fa7cA13PtzIw-9" value="Dim_Company" style="swimlane;fontStyle=0;childLayout=stackLayout;horizontal=1;startSize=30;horizontalStack=0;resizeParent=1;resizeParentMax=0;resizeLast=0;collapsible=1;marginBottom=0;whiteSpace=wrap;html=1;" parent="1" vertex="1">
          <mxGeometry x="70" y="400" width="140" height="90" as="geometry" />
        </mxCell>
        <mxCell id="rvspoTg9fa7cA13PtzIw-11" value="&lt;code&gt;Company_SK&lt;span style=&quot;white-space: pre;&quot;&gt;&#x9;&lt;/span&gt;PK&lt;/code&gt;" style="text;strokeColor=none;fillColor=none;align=left;verticalAlign=middle;spacingLeft=4;spacingRight=4;overflow=hidden;points=[[0,0.5],[1,0.5]];portConstraint=eastwest;rotatable=0;whiteSpace=wrap;html=1;" parent="rvspoTg9fa7cA13PtzIw-9" vertex="1">
          <mxGeometry y="30" width="140" height="30" as="geometry" />
        </mxCell>
        <mxCell id="rvspoTg9fa7cA13PtzIw-10" value="CompanyName" style="text;strokeColor=none;fillColor=none;align=left;verticalAlign=middle;spacingLeft=4;spacingRight=4;overflow=hidden;points=[[0,0.5],[1,0.5]];portConstraint=eastwest;rotatable=0;whiteSpace=wrap;html=1;" parent="rvspoTg9fa7cA13PtzIw-9" vertex="1">
          <mxGeometry y="60" width="140" height="30" as="geometry" />
        </mxCell>
        <mxCell id="bVk_ooVgfEcZp028kmDX-11" value="&lt;code&gt;&lt;b&gt;&lt;font style=&quot;font-size: 13px;&quot;&gt;Dim_Model&lt;/font&gt;&lt;/b&gt;&lt;/code&gt;" style="swimlane;fontStyle=0;childLayout=stackLayout;horizontal=1;startSize=30;horizontalStack=0;resizeParent=1;resizeParentMax=0;resizeLast=0;collapsible=1;marginBottom=0;whiteSpace=wrap;html=1;" vertex="1" parent="1">
          <mxGeometry x="70" y="190" width="140" height="90" as="geometry" />
        </mxCell>
        <mxCell id="bVk_ooVgfEcZp028kmDX-12" value="&lt;code&gt;&lt;b&gt;&lt;code style=&quot;&quot;&gt;Model_SK&lt;/code&gt;&amp;nbsp;&lt;span style=&quot;white-space: pre;&quot;&gt;&#x9;&lt;/span&gt;PK&lt;/b&gt;&lt;/code&gt;" style="text;strokeColor=none;fillColor=none;align=left;verticalAlign=middle;spacingLeft=4;spacingRight=4;overflow=hidden;points=[[0,0.5],[1,0.5]];portConstraint=eastwest;rotatable=0;whiteSpace=wrap;html=1;" vertex="1" parent="bVk_ooVgfEcZp028kmDX-11">
          <mxGeometry y="30" width="140" height="30" as="geometry" />
        </mxCell>
        <mxCell id="bVk_ooVgfEcZp028kmDX-13" value="ModelName" style="text;strokeColor=none;fillColor=none;align=left;verticalAlign=middle;spacingLeft=4;spacingRight=4;overflow=hidden;points=[[0,0.5],[1,0.5]];portConstraint=eastwest;rotatable=0;whiteSpace=wrap;html=1;" vertex="1" parent="bVk_ooVgfEcZp028kmDX-11">
          <mxGeometry y="60" width="140" height="30" as="geometry" />
        </mxCell>
        <mxCell id="bVk_ooVgfEcZp028kmDX-14" value="&lt;code&gt;&lt;b&gt;&lt;font style=&quot;font-size: 13px;&quot;&gt;Dim_FuelType&lt;/font&gt;&lt;/b&gt;&lt;/code&gt;" style="swimlane;fontStyle=0;childLayout=stackLayout;horizontal=1;startSize=30;horizontalStack=0;resizeParent=1;resizeParentMax=0;resizeLast=0;collapsible=1;marginBottom=0;whiteSpace=wrap;html=1;" vertex="1" parent="1">
          <mxGeometry x="550" y="380" width="140" height="90" as="geometry" />
        </mxCell>
        <mxCell id="bVk_ooVgfEcZp028kmDX-15" value="&lt;code&gt;&lt;b&gt;FuelType_SK&lt;span style=&quot;white-space: pre;&quot;&gt;&#x9;&lt;/span&gt;PK&lt;/b&gt;&lt;/code&gt;" style="text;strokeColor=none;fillColor=none;align=left;verticalAlign=middle;spacingLeft=4;spacingRight=4;overflow=hidden;points=[[0,0.5],[1,0.5]];portConstraint=eastwest;rotatable=0;whiteSpace=wrap;html=1;" vertex="1" parent="bVk_ooVgfEcZp028kmDX-14">
          <mxGeometry y="30" width="140" height="30" as="geometry" />
        </mxCell>
        <mxCell id="bVk_ooVgfEcZp028kmDX-16" value="FuelType" style="text;strokeColor=none;fillColor=none;align=left;verticalAlign=middle;spacingLeft=4;spacingRight=4;overflow=hidden;points=[[0,0.5],[1,0.5]];portConstraint=eastwest;rotatable=0;whiteSpace=wrap;html=1;" vertex="1" parent="bVk_ooVgfEcZp028kmDX-14">
          <mxGeometry y="60" width="140" height="30" as="geometry" />
        </mxCell>
        <mxCell id="bVk_ooVgfEcZp028kmDX-18" style="edgeStyle=orthogonalEdgeStyle;rounded=0;orthogonalLoop=1;jettySize=auto;html=1;exitX=0;exitY=0.5;exitDx=0;exitDy=0;entryX=1;entryY=0.5;entryDx=0;entryDy=0;" edge="1" parent="1" source="rvspoTg9fa7cA13PtzIw-4" target="rvspoTg9fa7cA13PtzIw-11">
          <mxGeometry relative="1" as="geometry" />
        </mxCell>
        <mxCell id="bVk_ooVgfEcZp028kmDX-19" style="edgeStyle=orthogonalEdgeStyle;rounded=0;orthogonalLoop=1;jettySize=auto;html=1;exitX=0;exitY=0.5;exitDx=0;exitDy=0;entryX=1;entryY=0.5;entryDx=0;entryDy=0;" edge="1" parent="1" source="rvspoTg9fa7cA13PtzIw-3" target="bVk_ooVgfEcZp028kmDX-12">
          <mxGeometry relative="1" as="geometry" />
        </mxCell>
        <mxCell id="bVk_ooVgfEcZp028kmDX-21" style="edgeStyle=orthogonalEdgeStyle;rounded=0;orthogonalLoop=1;jettySize=auto;html=1;exitX=1;exitY=0.5;exitDx=0;exitDy=0;entryX=0;entryY=0.5;entryDx=0;entryDy=0;" edge="1" parent="1" source="bVk_ooVgfEcZp028kmDX-6" target="rvspoTg9fa7cA13PtzIw-6">
          <mxGeometry relative="1" as="geometry" />
        </mxCell>
        <mxCell id="bVk_ooVgfEcZp028kmDX-22" style="edgeStyle=orthogonalEdgeStyle;rounded=0;orthogonalLoop=1;jettySize=auto;html=1;exitX=1;exitY=0.5;exitDx=0;exitDy=0;entryX=0;entryY=0.5;entryDx=0;entryDy=0;" edge="1" parent="1" source="rvspoTg9fa7cA13PtzIw-16" target="bVk_ooVgfEcZp028kmDX-15">
          <mxGeometry relative="1" as="geometry" />
        </mxCell>
      </root>
    </mxGraphModel>
  </diagram>
</mxfile>
